<mxfile host="app.diagrams.net" modified="2024-04-01T14:34:28.594Z" agent="Mozilla/5.0 (Windows NT 10.0; Win64; x64) AppleWebKit/537.36 (KHTML, like Gecko) Chrome/123.0.0.0 Safari/537.36" version="24.2.1" etag="-gRuMLcygxZ07J5XNsUA" type="github">
  <diagram name="Trang-1" id="_G73QUM4wvRHz5ibLGMa">
    <mxGraphModel>
      <root>
        <mxCell id="0" />
        <mxCell id="1" parent="0" />
      </root>
    </mxGraphModel>
  </diagram>
</mxfile>
